<svg xmlns="http://www.w3.org/2000/svg" viewBox="0 0 130.3 107.87"><defs><style>.cls-1,.cls-2{fill:#f69b1e;}.cls-1{fill-rule:evenodd;}.cls-3{fill:#fff;}</style></defs><title>Asset 8</title><g id="Layer_2" data-name="Layer 2"><g id="Layer_1-2" data-name="Layer 1"><path class="cls-1" d="M97.51,35.84c-2.52,4.39-5.34,9.88-7.74,14.09-1.32,2.31-2.6,7.91,1.15,8.51,2.28.37,4.71-2.87,5.2-4.78.76-3,4.1-8.31,5.69-11.09,10.46,9.64,23,4.55,28.1-7.59,1.76-4.15-2.88-4.79-3.94-2.85-3.75,6.88-14.07,11.6-18.68,1.32,4.4-6.5,8.66-13.25,15-18,1.24-.92,1.86-2.14.88-3.53a7.91,7.91,0,0,0-4.82-3.07,3,3,0,0,0-3.07.91c-4,4.68-6.9,9.48-10.29,14.6-1-3.84-.91-6.27-.92-10,0-3.08-1.67-3.68-4.42-3.23-2.54.42-3.48,2-4.44,4.78C95.63,21.63,95.53,30.65,97.51,35.84Z"/><path class="cls-2" d="M53.11,67A70.41,70.41,0,0,1,41.8,72.78L39,73.9l1.11-2.8c2.42-6.12,7.22-12.37,13-17.16l.1-.09a44.33,44.33,0,0,1,5.92-4.15c4.26-2.48,6.32-1.78,7.31-.77,1.27,1.32,1.1,3.75-.44,6.19h0C63.09,59.68,58.3,63.73,53.16,67h0Zm0-27.28C41.08,46.49,30.24,59.07,25.41,70c-4.35,9.88-7.13,23.23-1.87,31.09,3.11,4.65,8.72,6.93,16.7,6.74a47.31,47.31,0,0,0,12.86-2.31l.05,0C66.86,101.26,81.62,91.84,95,83.28c5.43-3.47,10.57-6.75,15.22-9.39,2-3.6,1.64-5.65-1.17-7.49-6.42-4.19-9.55-2.76-15.66,1.79l-1.4,1c-8.29,6.2-25.39,19-38.89,23.72a26.51,26.51,0,0,1-9.71,1.8,7.05,7.05,0,0,1-5.22-2.25,6.68,6.68,0,0,1-1.33-5.23l.19-1.67.93-.18a56.64,56.64,0,0,0,15.12-5.48h0c11-5.79,20.92-15.05,26.82-25.66,3-5.44,3.23-10.48.6-14.21-2.35-3.32-6.63-5.18-11.62-5.18h0a21.67,21.67,0,0,0-3.58.3A38.32,38.32,0,0,0,53.13,39.73Z"/><path class="cls-3" d="M20.51,75.73c-7.24-.93-6.81-9.13-6.81-14.59V2.91C13.7,1,12.88,0,10.88,0H2.8C.95,0,.15.93,0,2.91V60.62C0,75,2.85,87,18.09,88.34A51.51,51.51,0,0,1,20.51,75.73Z"/><circle class="cls-2" cx="108.95" cy="4.63" r="4.62"/></g></g></svg>